.
..............................Site Info...........................

 -   http://www.scenetime.com  *_*   


Scenetime .Always on time . friendly online private torrent community ..

     We care to share . Join us on  http://www.scenetime.com 

    Be the first to get new release at  http://www.scenetime.com

        Seed back for speed


...................................NFO:.................................................[img]http://i.imgur.com/SHgdm.jpg[/img]

[b]Thin.Ice.2012.DC.BRRip.XViD.AC3-ADTRG[/b]

An insurance agent looking for a way out of frigid Wisconsin is blackmailed by an unstable locksmith in the theft of a rare violin that belongs to a retired farmer.  

[url]http://www.imdb.com/title/tt1512240/[/url]

Source -  Thin Ice 2012 BluRay 720p DTS x264-CHD   Thanks

Complete name                            : Thin.Ice.2012.DC.BRRip.XViD.AC3-ADTRG.avi
Format                                   : AVI
Format/Info                              : Audio Video Interleave
File size                                : 1.67 GiB
Duration                                 : 1h 49mn
Overall bit rate                         : 2 189 Kbps
Writing library                          : VirtualDub build 34703/release

Video
ID                                       : 0
Format                                   : MPEG-4 Visual
Codec ID                                 : XVID
Bit rate                                 : 1 795 Kbps
Width                                    : 720 pixels
Height                                   : 304 pixels
Display aspect ratio                     : 2.35:1
Frame rate                               : 23.976 fps
Stream size                              : 1.37 GiB (82%)

Audio
ID                                       : 1
Format                                   : AC-3
Bit rate                                 : 384 Kbps
Channel(s)                               : 6 channels
Channel positions                        : Front: L C R, Side: L R, LFE
Sampling rate                            : 48.0 KHz
Stream size                              : 300 MiB (18%)



Encoder - LiMeY
All i want to do is a Boom Boom Boom and a Boom Boom, yaa shake ya rump

[img]http://i.imgur.com/7hkiK.png[/img]


[IMG]http://i.imgur.com/2739o.gif?1?8830[/IMG]

Dont fear the Atomic Dragon, Embrace it  :)


Greetz to DragonMaster,cOOkies,Mr Geek,DBratt420,AnimeKing,Jiinx,Cush,NoWoRRiEs Rayne, Mr & Mrs IrNbRu and the rest of the crew

Respect to CM8,Goon,Hope,mSD,InfernO,legend-rg and maybe a few more ;)